<?xml version="1.0" standalone="no"?>
<!DOCTYPE svg PUBLIC "-//W3C//DTD SVG 20010904//EN"
 "http://www.w3.org/TR/2001/REC-SVG-20010904/DTD/svg10.dtd">
<svg version="1.0" xmlns="http://www.w3.org/2000/svg"
 width="256.000000pt" height="256.000000pt" viewBox="0 0 256.000000 256.000000"
 preserveAspectRatio="xMidYMid meet">
<metadata>
Created by potrace 1.14, written by Peter Selinger 2001-2017
</metadata>
<g transform="translate(0.000000,256.000000) scale(0.100000,-0.100000)"
fill="#000000" stroke="none">
<path d="M1255 2010 c-11 -17 -25 -28 -31 -26 -7 3 -26 -11 -45 -30 l-33 -34
-455 -2 c-353 -2 -455 -6 -459 -15 -3 -10 211 -13 1048 -13 837 0 1051 3 1048
13 -4 9 -105 13 -454 15 l-448 2 -37 36 c-21 20 -42 33 -47 30 -6 -3 -20 7
-32 24 -12 16 -24 30 -28 30 -4 0 -16 -14 -27 -30z"/>
<path d="M1270 1670 c-23 -23 -24 -33 -10 -61 12 -22 59 -26 78 -7 19 19 15
66 -7 78 -28 14 -38 13 -61 -10z"/>
<path d="M290 1480 l0 -200 50 0 50 0 0 80 0 80 75 0 75 0 0 -80 0 -80 50 0
50 0 -2 198 -3 197 -47 3 -48 3 0 -75 0 -76 -75 0 -75 0 0 75 0 75 -50 0 -50
0 0 -200z"/>
<path d="M754 1541 c-52 -31 -74 -68 -74 -121 0 -140 172 -201 269 -96 33 36
40 117 13 165 -36 67 -141 93 -208 52z m101 -73 c33 -15 42 -51 21 -83 -21
-33 -69 -34 -90 -3 -22 31 -20 45 9 73 28 29 26 29 60 13z"/>
<path d="M1020 1420 l0 -140 45 0 45 0 0 84 c0 97 13 121 59 111 22 -5 31 0
50 25 18 25 20 34 11 46 -14 16 -73 19 -101 4 -13 -7 -19 -7 -19 0 0 5 -20 10
-45 10 l-45 0 0 -140z"/>
<path d="M1260 1420 l0 -140 45 0 45 0 0 140 0 140 -45 0 -45 0 0 -140z"/>
<path d="M1400 1520 l0 -40 51 0 50 0 -55 -72 c-38 -48 -56 -81 -56 -100 l0
-28 121 0 120 0 -3 38 c-3 36 -4 37 -52 42 l-48 5 51 65 c37 47 51 74 51 98
l0 32 -115 0 -115 0 0 -40z"/>
<path d="M1719 1539 c-47 -28 -69 -66 -69 -122 0 -137 173 -197 269 -93 33 36
40 117 13 165 -37 68 -140 92 -213 50z m106 -71 c33 -15 42 -51 20 -84 -37
-57 -128 -1 -96 60 8 14 21 27 30 29 9 3 17 5 18 6 1 0 14 -4 28 -11z"/>
<path d="M1990 1420 l0 -140 45 0 45 0 0 84 c0 86 12 116 45 116 33 0 45 -30
45 -116 l0 -84 45 0 45 0 0 100 c0 112 -12 149 -55 168 -32 15 -80 15 -106 2
-13 -7 -19 -7 -19 0 0 5 -20 10 -45 10 l-45 0 0 -140z"/>
<path d="M1273 1141 c-57 -27 -77 -68 -74 -155 1 -40 65 -101 113 -110 41 -8
102 6 133 29 19 15 19 15 -2 36 -19 19 -24 20 -55 9 -42 -16 -84 -7 -98 20
-10 19 -7 20 90 20 l100 0 0 33 c0 71 -65 137 -135 137 -16 0 -49 -9 -72 -19z
m112 -71 c18 -20 17 -20 -45 -20 -62 0 -63 0 -45 20 10 11 30 20 45 20 15 0
35 -9 45 -20z"/>
<path d="M1647 1153 c-4 -3 -34 -5 -67 -4 l-60 2 0 -136 0 -135 45 0 45 0 0
89 c0 98 10 117 55 109 20 -4 30 1 47 25 21 29 21 30 3 43 -20 15 -57 19 -68
7z"/>
<path d="M1810 1153 c-37 -14 -60 -47 -60 -84 0 -43 15 -58 79 -80 25 -9 46
-22 46 -30 0 -21 -42 -23 -72 -4 -24 16 -26 16 -49 -6 -22 -20 -23 -24 -8 -40
21 -24 95 -42 135 -34 50 11 79 42 79 85 0 43 -26 72 -82 89 -21 7 -40 17 -43
22 -10 16 27 23 59 11 27 -11 33 -9 55 12 l23 24 -26 17 c-28 18 -109 29 -136
18z"/>
<path d="M2075 1144 c-46 -24 -64 -44 -76 -85 -15 -50 -4 -101 30 -137 49 -54
152 -64 204 -21 l22 18 -22 22 c-19 20 -26 21 -48 11 -37 -17 -69 -15 -88 6
-10 10 -17 22 -17 25 0 4 42 7 94 7 106 0 113 5 96 69 -22 82 -119 125 -195
85z m105 -69 c18 -22 9 -27 -51 -23 -50 3 -52 4 -35 21 22 21 69 22 86 2z"/>
<path d="M937 1043 c25 -60 50 -120 55 -135 8 -24 16 -28 48 -28 32 0 40 4 48
28 5 15 30 76 56 135 l45 108 -46 -3 -46 -3 -25 -73 c-13 -39 -28 -70 -32 -67
-5 3 -19 37 -31 75 l-23 70 -47 0 -48 0 46 -107z"/>
<path d="M232 668 c4 -10 106 -14 459 -16 l455 -2 33 -34 c19 -19 38 -33 45
-30 6 2 20 -9 31 -26 11 -16 23 -30 27 -30 4 0 16 14 28 30 12 17 26 27 32 24
5 -3 26 10 47 30 l37 36 448 2 c349 2 450 6 454 16 3 9 -211 12 -1048 12 -837
0 -1051 -3 -1048 -12z"/>
</g>
</svg>
