<svg width="1146" height="1080" viewBox="0 0 1146 1080" fill="none" xmlns="http://www.w3.org/2000/svg">
<path d="M0 0H834V1080H0V0Z" fill="#FFF7EC"/>
<path d="M834 1.99998C916.748 1.99997 996.106 286.356 1054.62 337.297C1113.13 388.237 1146 457.328 1146 529.369C1146 601.41 1113.13 670.5 1054.62 721.441C996.106 772.382 916.748 801 834 801L834 529.369L834 1.99998Z" fill="#FFF7EC"/>
<path d="M834 1077C916.748 1077 996.106 792.644 1054.62 741.703C1113.13 690.763 1146 621.672 1146 549.631C1146 477.59 1113.13 408.5 1054.62 357.559C996.106 306.618 916.748 278 834 278L834 549.631L834 1077Z" fill="#FFF7EC"/>
</svg>
