<svg width="748" height="832" viewBox="0 0 748 832" fill="none" xmlns="http://www.w3.org/2000/svg">
<path d="M12.648 186H10.648V188H12.648V186ZM12.648 54.684V52.684H10.648V54.684H12.648ZM41.85 54.684H43.85V52.684H41.85V54.684ZM41.85 186V188H43.85V186H41.85ZM34.968 186H32.968V188H34.968V186ZM34.968 160.704V158.704H32.968V160.704H34.968ZM106.95 160.704H108.95V158.704H106.95V160.704ZM106.95 186V188H108.95V186H106.95ZM34.968 131.13H32.968V133.13H34.968V131.13ZM34.968 106.764V104.764H32.968V106.764H34.968ZM100.44 106.764H102.44V104.764H100.44V106.764ZM100.44 131.13V133.13H102.44V131.13H100.44ZM34.968 79.794H32.968V81.794H34.968V79.794ZM34.968 54.684V52.684H32.968V54.684H34.968ZM106.02 54.684H108.02V52.684H106.02V54.684ZM106.02 79.794V81.794H108.02V79.794H106.02ZM14.648 186V54.684H10.648V186H14.648ZM12.648 56.684H41.85V52.684H12.648V56.684ZM39.85 54.684V186H43.85V54.684H39.85ZM41.85 184H12.648V188H41.85V184ZM36.968 186V160.704H32.968V186H36.968ZM34.968 162.704H106.95V158.704H34.968V162.704ZM104.95 160.704V186H108.95V160.704H104.95ZM106.95 184H34.968V188H106.95V184ZM36.968 131.13V106.764H32.968V131.13H36.968ZM34.968 108.764H100.44V104.764H34.968V108.764ZM98.44 106.764V131.13H102.44V106.764H98.44ZM100.44 129.13H34.968V133.13H100.44V129.13ZM36.968 79.794V54.684H32.968V79.794H36.968ZM34.968 56.684H106.02V52.684H34.968V56.684ZM104.02 54.684V79.794H108.02V54.684H104.02ZM106.02 77.794H34.968V81.794H106.02V77.794ZM180.464 186L178.763 187.053L179.349 188H180.464V186ZM158.702 150.846L160.402 149.793L160.161 149.404L159.775 149.159L158.702 150.846ZM152.564 146.94L150.919 148.078L151.149 148.41L151.49 148.627L152.564 146.94ZM117.038 95.604V93.604H113.221L115.393 96.7421L117.038 95.604ZM150.332 95.604L152.035 94.5553L151.449 93.604H150.332V95.604ZM170.606 128.526L168.903 129.575L169.148 129.974L169.546 130.222L170.606 128.526ZM176.558 132.246L178.208 131.116L177.972 130.771L177.618 130.55L176.558 132.246ZM213.386 186V188H217.18L215.036 184.87L213.386 186ZM115.364 186L113.728 184.85L111.512 188H115.364V186ZM152.378 133.362L153.873 132.034L152.195 130.144L150.742 132.212L152.378 133.362ZM168.56 151.59L170.242 152.672L171.062 151.396L170.055 150.262L168.56 151.59ZM146.426 186V188H147.517L148.108 187.082L146.426 186ZM176.372 146.754L174.876 148.082L176.572 149.993L178.02 147.887L176.372 146.754ZM160.19 128.526L158.491 127.47L157.703 128.738L158.694 129.854L160.19 128.526ZM180.65 95.604V93.604H179.538L178.951 94.5483L180.65 95.604ZM211.526 95.604L213.174 96.7368L215.327 93.604H211.526V95.604ZM182.164 184.947L160.402 149.793L157.001 151.899L178.763 187.053L182.164 184.947ZM159.775 149.159L153.637 145.253L151.49 148.627L157.628 152.533L159.775 149.159ZM154.208 145.802L118.682 94.4659L115.393 96.7421L150.919 148.078L154.208 145.802ZM117.038 97.604H150.332V93.604H117.038V97.604ZM148.629 96.6527L168.903 129.575L172.309 127.477L152.035 94.5553L148.629 96.6527ZM169.546 130.222L175.498 133.942L177.618 130.55L171.666 126.83L169.546 130.222ZM174.908 133.376L211.736 187.13L215.036 184.87L178.208 131.116L174.908 133.376ZM213.386 184H180.464V188H213.386V184ZM117 187.15L154.014 134.512L150.742 132.212L113.728 184.85L117 187.15ZM150.882 134.69L167.064 152.918L170.055 150.262L153.873 132.034L150.882 134.69ZM166.878 150.508L144.744 184.918L148.108 187.082L170.242 152.672L166.878 150.508ZM146.426 184H115.364V188H146.426V184ZM177.867 145.426L161.685 127.198L158.694 129.854L174.876 148.082L177.867 145.426ZM161.888 129.582L182.348 96.6597L178.951 94.5483L158.491 127.47L161.888 129.582ZM180.65 97.604H211.526V93.604H180.65V97.604ZM209.877 94.4712L174.723 145.621L178.02 147.887L213.174 96.7368L209.877 94.4712ZM259.538 184.326L260.379 182.511L259.538 184.326ZM247.076 174.654L245.488 175.869L245.496 175.88L245.505 175.892L247.076 174.654ZM241.496 160.332H239.496V160.425L239.505 160.517L241.496 160.332ZM241.496 122.202L239.505 122.017L239.496 122.109V122.202H241.496ZM247.076 107.694L245.471 106.501L247.076 107.694ZM259.538 97.464L260.415 99.2615L259.538 97.464ZM298.97 99.882L297.913 101.58L297.92 101.584L297.927 101.589L298.97 99.882ZM314.594 116.622L312.824 117.553L312.831 117.566L312.837 117.578L314.594 116.622ZM314.594 164.982L312.837 164.026L312.831 164.038L312.824 164.051L314.594 164.982ZM298.97 181.722L297.927 180.015L297.92 180.02L297.913 180.024L298.97 181.722ZM281.672 159.402L280.643 157.687L280.628 157.696L280.612 157.706L281.672 159.402ZM288.926 151.776L287.165 150.828L288.926 151.776ZM288.926 129.642L287.165 130.59L288.926 129.642ZM281.672 122.202L280.612 123.898L280.653 123.923L280.695 123.947L281.672 122.202ZM260.654 122.202L261.662 123.93L261.673 123.923L261.683 123.917L260.654 122.202ZM253.586 129.642L255.347 130.59L253.586 129.642ZM253.4 151.776L251.611 152.67L251.625 152.698L251.639 152.724L253.4 151.776ZM260.654 159.402L259.625 161.117L260.654 159.402ZM224.198 224.13H222.198V226.13H224.198V224.13ZM224.198 95.604V93.604H222.198V95.604H224.198ZM252.656 95.604H254.656V93.604H252.656V95.604ZM252.656 118.854L254.613 119.269L254.656 119.064V118.854H252.656ZM248.006 140.802L246.05 140.387L245.965 140.785L246.043 141.185L248.006 140.802ZM252.284 162.75H254.284V162.557L254.247 162.367L252.284 162.75ZM252.284 224.13V226.13H254.284V224.13H252.284ZM276.278 185.86C270.468 185.86 265.178 184.735 260.379 182.511L258.697 186.141C264.067 188.629 269.937 189.86 276.278 189.86V185.86ZM260.379 182.511C255.558 180.277 251.662 177.243 248.647 173.416L245.505 175.892C248.938 180.249 253.35 183.663 258.697 186.141L260.379 182.511ZM248.665 173.439C245.671 169.524 243.949 165.108 243.488 160.147L239.505 160.517C240.035 166.22 242.033 171.352 245.488 175.869L248.665 173.439ZM243.496 160.332V122.202H239.496V160.332H243.496ZM243.488 122.387C243.949 117.424 245.674 112.936 248.682 108.887L245.471 106.501C242.031 111.132 240.035 116.316 239.505 122.017L243.488 122.387ZM248.682 108.887C251.706 104.816 255.605 101.608 260.415 99.2615L258.661 95.6665C253.303 98.2801 248.895 101.892 245.471 106.501L248.682 108.887ZM260.415 99.2615C265.206 96.9245 270.483 95.744 276.278 95.744V91.744C269.921 91.744 264.039 93.0435 258.661 95.6665L260.415 99.2615ZM276.278 95.744C284.501 95.744 291.691 97.7057 297.913 101.58L300.027 98.1842C293.105 93.8743 285.167 91.744 276.278 91.744V95.744ZM297.927 101.589C304.31 105.489 309.269 110.799 312.824 117.553L316.364 115.691C312.479 108.309 307.023 102.459 300.013 98.1754L297.927 101.589ZM312.837 117.578C316.503 124.317 318.36 132.041 318.36 140.802H322.36C322.36 131.459 320.374 123.063 316.351 115.666L312.837 117.578ZM318.36 140.802C318.36 149.563 316.503 157.287 312.837 164.026L316.351 165.938C320.374 158.541 322.36 150.145 322.36 140.802H318.36ZM312.824 164.051C309.269 170.805 304.31 176.115 297.927 180.015L300.013 183.429C307.023 179.145 312.479 173.295 316.364 165.913L312.824 164.051ZM297.913 180.024C291.691 183.898 284.501 185.86 276.278 185.86V189.86C285.167 189.86 293.105 187.73 300.027 183.42L297.913 180.024ZM271.07 164.192C275.474 164.192 279.389 163.188 282.732 161.098L280.612 157.706C278.004 159.336 274.851 160.192 271.07 160.192V164.192ZM282.701 161.117C286.114 159.069 288.783 156.261 290.687 152.724L287.165 150.828C285.598 153.739 283.431 156.015 280.643 157.687L282.701 161.117ZM290.687 152.724C292.598 149.176 293.53 145.185 293.53 140.802H289.53C289.53 144.603 288.727 147.928 287.165 150.828L290.687 152.724ZM293.53 140.802C293.53 136.306 292.602 132.251 290.687 128.694L287.165 130.59C288.722 133.481 289.53 136.866 289.53 140.802H293.53ZM290.687 128.694C288.777 125.146 286.092 122.385 282.65 120.457L280.695 123.947C283.453 125.491 285.604 127.69 287.165 130.59L290.687 128.694ZM282.732 120.506C279.398 118.422 275.549 117.412 271.256 117.412V121.412C274.9 121.412 277.994 122.262 280.612 123.898L282.732 120.506ZM271.256 117.412C266.962 117.412 263.066 118.423 259.625 120.487L261.683 123.917C264.443 122.261 267.614 121.412 271.256 121.412V117.412ZM259.647 120.474C256.332 122.408 253.724 125.167 251.825 128.694L255.347 130.59C256.92 127.669 259.024 125.468 261.662 123.93L259.647 120.474ZM251.825 128.694C249.91 132.251 248.982 136.306 248.982 140.802H252.982C252.982 136.866 253.79 133.481 255.347 130.59L251.825 128.694ZM248.982 140.802C248.982 145.162 249.843 149.133 251.611 152.67L255.189 150.882C253.734 147.971 252.982 144.626 252.982 140.802H248.982ZM251.639 152.724C253.544 156.261 256.213 159.069 259.625 161.117L261.683 157.687C258.896 156.015 256.729 153.739 255.161 150.828L251.639 152.724ZM259.625 161.117C263.056 163.175 266.888 164.192 271.07 164.192V160.192C267.565 160.192 264.453 159.349 261.683 157.687L259.625 161.117ZM226.198 224.13V95.604H222.198V224.13H226.198ZM224.198 97.604H252.656V93.604H224.198V97.604ZM250.656 95.604V118.854H254.656V95.604H250.656ZM250.7 118.439L246.05 140.387L249.963 141.217L254.613 119.269L250.7 118.439ZM246.043 141.185L250.321 163.133L254.247 162.367L249.969 140.419L246.043 141.185ZM250.284 162.75V224.13H254.284V162.75H250.284ZM252.284 222.13H224.198V226.13H252.284V222.13ZM334.817 186H332.817V188H334.817V186ZM334.817 50.964V48.964H332.817V50.964H334.817ZM363.275 50.964H365.275V48.964H363.275V50.964ZM363.275 186V188H365.275V186H363.275ZM336.817 186V50.964H332.817V186H336.817ZM334.817 52.964H363.275V48.964H334.817V52.964ZM361.275 50.964V186H365.275V50.964H361.275ZM363.275 184H334.817V188H363.275V184ZM401.543 181.908L400.557 183.648L400.575 183.658L400.592 183.667L401.543 181.908ZM383.873 164.796L385.586 163.763L383.873 164.796ZM383.873 116.622L382.169 115.575L383.873 116.622ZM401.543 99.882L402.507 101.634L402.518 101.628L402.53 101.622L401.543 99.882ZM469.805 116.622L468.093 117.655L468.097 117.662L468.101 117.669L469.805 116.622ZM469.805 164.796L471.518 165.829L469.805 164.796ZM452.135 181.908L453.099 183.66L453.11 183.654L453.122 183.648L452.135 181.908ZM437.628 159.588L438.605 161.333L438.631 161.318L438.656 161.303L437.628 159.588ZM444.695 151.962L442.92 151.041L442.913 151.054L442.907 151.068L444.695 151.962ZM444.695 129.642L442.935 130.59L442.942 130.605L442.95 130.619L444.695 129.642ZM437.441 122.202L436.382 123.898L436.422 123.923L436.464 123.947L437.441 122.202ZM416.237 122.202L417.215 123.947L417.241 123.932L417.266 123.917L416.237 122.202ZM408.983 129.642L410.744 130.59L408.983 129.642ZM408.983 151.962L407.208 152.883L407.215 152.896L407.223 152.91L408.983 151.962ZM416.237 159.588L415.208 161.303L415.234 161.318L415.26 161.333L416.237 159.588ZM426.839 186.046C417.844 186.046 409.743 184.07 402.495 180.149L400.592 183.667C408.472 187.93 417.235 190.046 426.839 190.046V186.046ZM402.53 180.168C395.383 176.118 389.745 170.655 385.586 163.763L382.161 165.829C386.682 173.321 392.824 179.266 400.557 183.648L402.53 180.168ZM385.586 163.763C381.446 156.902 379.363 149.204 379.363 140.616H375.363C375.363 149.884 377.621 158.306 382.161 165.829L385.586 163.763ZM379.363 140.616C379.363 132.028 381.446 124.398 385.578 117.669L382.169 115.575C377.621 122.982 375.363 131.348 375.363 140.616H379.363ZM385.578 117.669C389.732 110.903 395.364 105.563 402.507 101.634L400.58 98.1296C392.843 102.385 386.695 108.205 382.169 115.575L385.578 117.669ZM402.53 101.622C409.639 97.5934 417.725 95.558 426.839 95.558V91.558C417.106 91.558 408.328 93.7386 400.557 98.142L402.53 101.622ZM426.839 95.558C435.964 95.558 444.058 97.5361 451.172 101.448L453.099 97.9436C445.333 93.6719 436.563 91.558 426.839 91.558V95.558ZM451.172 101.448C458.307 105.373 463.937 110.768 468.093 117.655L471.518 115.589C466.994 108.092 460.844 102.203 453.099 97.9436L451.172 101.448ZM468.101 117.669C472.233 124.398 474.315 132.028 474.315 140.616H478.315C478.315 131.348 476.058 122.982 471.51 115.575L468.101 117.669ZM474.315 140.616C474.315 149.204 472.233 156.902 468.093 163.763L471.518 165.829C476.058 158.306 478.315 149.884 478.315 140.616H474.315ZM468.093 163.763C463.934 170.655 458.296 176.118 451.149 180.168L453.122 183.648C460.855 179.266 466.997 173.321 471.518 165.829L468.093 163.763ZM451.172 180.156C444.058 184.068 435.964 186.046 426.839 186.046V190.046C436.563 190.046 445.333 187.932 453.099 183.66L451.172 180.156ZM426.839 164.192C431.221 164.192 435.163 163.26 438.605 161.333L436.65 157.843C433.892 159.388 430.642 160.192 426.839 160.192V164.192ZM438.656 161.303C442.082 159.248 444.702 156.422 446.484 152.856L442.907 151.068C441.465 153.95 439.373 156.208 436.599 157.873L438.656 161.303ZM446.471 152.883C448.371 149.218 449.299 145.114 449.299 140.616H445.299C445.299 144.55 444.492 148.01 442.92 151.041L446.471 152.883ZM449.299 140.616C449.299 136.122 448.372 132.115 446.44 128.665L442.95 130.619C444.491 133.369 445.299 136.678 445.299 140.616H449.299ZM446.456 128.694C444.546 125.146 441.861 122.385 438.419 120.457L436.464 123.947C439.222 125.491 441.373 127.69 442.935 130.59L446.456 128.694ZM438.501 120.506C435.158 118.416 431.243 117.412 426.839 117.412V121.412C430.62 121.412 433.773 122.268 436.382 123.898L438.501 120.506ZM426.839 117.412C422.545 117.412 418.649 118.423 415.208 120.487L417.266 123.917C420.026 122.261 423.197 121.412 426.839 121.412V117.412ZM415.26 120.457C411.818 122.385 409.133 125.146 407.223 128.694L410.744 130.59C412.306 127.69 414.457 125.491 417.215 123.947L415.26 120.457ZM407.223 128.694C405.307 132.251 404.379 136.306 404.379 140.802H408.379C408.379 136.866 409.188 133.481 410.744 130.59L407.223 128.694ZM404.379 140.802C404.379 145.187 405.312 149.226 407.208 152.883L410.759 151.041C409.183 148.002 408.379 144.601 408.379 140.802H404.379ZM407.223 152.91C409.127 156.447 411.796 159.255 415.208 161.303L417.266 157.873C414.479 156.201 412.312 153.925 410.744 151.014L407.223 152.91ZM415.26 161.333C418.693 163.255 422.57 164.192 426.839 164.192V160.192C423.173 160.192 419.982 159.393 417.215 157.843L415.26 161.333ZM490.483 186H488.483V188H490.483V186ZM490.483 95.604V93.604H488.483V95.604H490.483ZM518.941 95.604H520.941V93.604H518.941V95.604ZM518.941 186V188H520.941V186H518.941ZM518.941 136.338L517.71 137.914L520.941 140.438V136.338H518.941ZM507.037 127.038L505.086 126.602L504.81 127.836L505.806 128.614L507.037 127.038ZM518.941 102.486L520.386 103.869L518.941 102.486ZM553.537 95.79L552.758 97.6319L552.8 97.6497L552.843 97.6655L553.537 95.79ZM562.279 101.742L563.848 102.983L564.901 101.652L563.759 100.397L562.279 101.742ZM545.353 123.132L543.874 124.477L545.459 126.221L546.922 124.373L545.353 123.132ZM540.703 119.97L539.961 121.827L540.703 119.97ZM523.033 123.318L521.589 121.934L521.588 121.936L523.033 123.318ZM492.483 186V95.604H488.483V186H492.483ZM490.483 97.604H518.941V93.604H490.483V97.604ZM516.941 95.604V186H520.941V95.604H516.941ZM518.941 184H490.483V188H518.941V184ZM520.173 134.762L508.269 125.462L505.806 128.614L517.71 137.914L520.173 134.762ZM508.989 127.474C511.292 117.173 515.13 109.359 520.386 103.869L517.497 101.103C511.593 107.269 507.495 115.823 505.086 126.602L508.989 127.474ZM520.386 103.869C525.505 98.5224 532.683 95.744 542.191 95.744V91.744C531.86 91.744 523.538 94.7936 517.497 101.103L520.386 103.869ZM542.191 95.744C546.326 95.744 549.832 96.394 552.758 97.6319L554.317 93.9481C550.795 92.458 546.737 91.744 542.191 91.744V95.744ZM552.843 97.6655C555.88 98.7905 558.528 100.588 560.8 103.087L563.759 100.397C561.071 97.4396 557.891 95.2695 554.232 93.9145L552.843 97.6655ZM560.711 100.501L543.785 121.891L546.922 124.373L563.848 102.983L560.711 100.501ZM546.833 121.787C545.372 120.18 543.563 118.96 541.446 118.113L539.961 121.827C541.564 122.468 542.855 123.356 543.874 124.477L546.833 121.787ZM541.446 118.113C539.312 117.259 536.946 116.854 534.379 116.854V120.854C536.525 120.854 538.375 121.193 539.961 121.827L541.446 118.113ZM534.379 116.854C529.208 116.854 524.874 118.507 521.589 121.934L524.477 124.702C526.897 122.177 530.127 120.854 534.379 120.854V116.854ZM521.588 121.936C518.366 125.304 516.941 130.237 516.941 136.338H520.941C520.941 130.783 522.245 127.036 524.479 124.7L521.588 121.936ZM585.731 182.094L584.78 183.853L584.797 183.862L584.814 183.871L585.731 182.094ZM567.875 165.168L569.588 164.135L567.875 165.168ZM567.689 116.622L565.977 115.589L565.972 115.597L567.689 116.622ZM649.529 115.32L647.787 116.302L647.794 116.314L647.801 116.326L649.529 115.32ZM655.109 143.964L653.127 143.7L653.119 143.76L653.115 143.822L655.109 143.964ZM654.179 150.102L654.184 152.102L655.803 152.098L656.137 150.514L654.179 150.102ZM576.245 150.288H574.245V152.293L576.25 152.288L576.245 150.288ZM576.245 130.758L576.24 128.758L574.245 128.764V130.758H576.245ZM642.089 130.572L643.199 132.236L648.723 128.553L642.084 128.572L642.089 130.572ZM629.813 138.756L627.814 138.804L627.9 142.435L630.923 140.42L629.813 138.756ZM627.395 125.922L625.557 126.71L625.562 126.722L625.568 126.734L627.395 125.922ZM620.699 118.11L619.607 119.785L619.649 119.812L619.692 119.838L620.699 118.11ZM598.379 118.482L599.428 120.185L599.436 120.18L599.445 120.174L598.379 118.482ZM590.753 127.038L588.965 126.144L588.953 126.168L588.941 126.192L590.753 127.038ZM590.939 154.38L589.139 155.251L589.156 155.286L589.175 155.321L590.939 154.38ZM599.123 163.122L598.086 164.832L598.121 164.853L598.157 164.873L599.123 163.122ZM623.861 163.866L624.626 165.714L624.653 165.703L624.68 165.691L623.861 163.866ZM633.347 156.798L634.762 155.384L633.254 153.876L631.846 155.477L633.347 156.798ZM648.971 172.422L650.49 173.724L651.695 172.317L650.386 171.008L648.971 172.422ZM632.789 184.14L632.028 182.291L632.789 184.14ZM611.957 186.046C602.438 186.046 594.018 184.12 586.649 180.317L584.814 183.871C592.821 188.004 601.885 190.046 611.957 190.046V186.046ZM586.683 180.335C579.425 176.408 573.739 171.014 569.588 164.135L566.163 166.201C570.692 173.706 576.91 179.596 584.78 183.853L586.683 180.335ZM569.588 164.135C565.451 157.279 563.365 149.519 563.365 140.802H559.365C559.365 150.189 561.62 158.673 566.163 166.201L569.588 164.135ZM563.365 140.802C563.365 132.074 565.394 124.374 569.407 117.647L565.972 115.597C561.553 123.006 559.365 131.426 559.365 140.802H563.365ZM569.402 117.655C573.563 110.76 579.137 105.364 586.15 101.442L584.197 97.9505C576.577 102.212 570.496 108.1 565.977 115.589L569.402 117.655ZM586.15 101.442C593.14 97.5319 601.044 95.558 609.911 95.558V91.558C600.427 91.558 591.839 93.6761 584.197 97.9505L586.15 101.442ZM609.911 95.558C618.544 95.558 626.071 97.4138 632.551 101.066L634.515 97.5817C627.356 93.5462 619.134 91.558 609.911 91.558V95.558ZM632.551 101.066C639.053 104.731 644.122 109.8 647.787 116.302L651.272 114.338C647.248 107.2 641.654 101.605 634.515 97.5817L632.551 101.066ZM647.801 116.326C651.571 122.806 653.481 130.263 653.481 138.756H657.481C657.481 129.641 655.424 121.474 651.258 114.314L647.801 116.326ZM653.481 138.756C653.481 140.267 653.365 141.913 653.127 143.7L657.092 144.228C657.35 142.295 657.481 140.469 657.481 138.756H653.481ZM653.115 143.822C652.999 145.44 652.706 147.392 652.222 149.69L656.137 150.514C656.645 148.1 656.972 145.96 657.104 144.106L653.115 143.822ZM654.175 148.102L576.241 148.288L576.25 152.288L654.184 152.102L654.175 148.102ZM578.245 150.288V130.758H574.245V150.288H578.245ZM576.251 132.758L642.095 132.572L642.084 128.572L576.24 128.758L576.251 132.758ZM640.98 128.908L628.704 137.092L630.923 140.42L643.199 132.236L640.98 128.908ZM631.813 138.708C631.685 133.339 630.853 128.778 629.223 125.11L625.568 126.734C626.914 129.762 627.694 133.757 627.814 138.804L631.813 138.708ZM629.234 125.134C627.594 121.308 625.09 118.356 621.707 116.382L619.692 119.838C622.261 121.336 624.221 123.592 625.557 126.71L629.234 125.134ZM621.792 116.435C618.545 114.317 614.609 113.32 610.097 113.32V117.32C614.018 117.32 617.15 118.183 619.607 119.785L621.792 116.435ZM610.097 113.32C605.306 113.32 601.021 114.456 597.314 116.79L599.445 120.174C602.434 118.292 605.961 117.32 610.097 117.32V113.32ZM597.331 116.779C593.759 118.977 590.974 122.124 588.965 126.144L592.542 127.932C594.253 124.512 596.552 121.955 599.428 120.185L597.331 116.779ZM588.941 126.192C587.05 130.244 586.149 135.076 586.149 140.616H590.149C590.149 135.492 590.985 131.272 592.566 127.884L588.941 126.192ZM586.149 140.616C586.149 146.177 587.119 151.077 589.139 155.251L592.74 153.509C591.04 149.995 590.149 145.719 590.149 140.616H586.149ZM589.175 155.321C591.321 159.345 594.295 162.53 598.086 164.832L600.161 161.412C597.008 159.498 594.526 156.855 592.704 153.439L589.175 155.321ZM598.157 164.873C602.098 167.047 606.658 168.098 611.771 168.098V164.098C607.213 164.098 603.341 163.165 600.09 161.371L598.157 164.873ZM611.771 168.098C616.46 168.098 620.755 167.316 624.626 165.714L623.097 162.018C619.776 163.392 616.011 164.098 611.771 164.098V168.098ZM624.68 165.691C628.549 163.956 631.941 161.424 634.849 158.119L631.846 155.477C629.298 158.372 626.366 160.552 623.043 162.041L624.68 165.691ZM631.933 158.212L647.557 173.836L650.386 171.008L634.762 155.384L631.933 158.212ZM647.453 171.12C643.194 176.089 638.059 179.807 632.028 182.291L633.551 185.989C640.168 183.265 645.821 179.171 650.49 173.724L647.453 171.12ZM632.028 182.291C625.97 184.785 619.288 186.046 611.957 186.046V190.046C619.755 190.046 626.961 188.703 633.551 185.989L632.028 182.291ZM674.984 183.024L673.543 184.411L674.984 183.024ZM674.984 158.658L676.398 160.072L676.411 160.059L676.424 160.045L674.984 158.658ZM699.164 158.658L697.696 160.017L697.722 160.045L697.75 160.072L699.164 158.658ZM699.164 183.024L697.723 181.637L697.71 181.651L697.696 181.665L699.164 183.024ZM687.074 186.046C682.757 186.046 679.255 184.576 676.424 181.637L673.543 184.411C677.161 188.168 681.719 190.046 687.074 190.046V186.046ZM676.424 181.637C673.565 178.667 672.148 175.137 672.148 170.934H668.148C668.148 176.155 669.955 180.685 673.543 184.411L676.424 181.637ZM672.148 170.934C672.148 166.453 673.584 162.886 676.398 160.072L673.57 157.244C669.936 160.878 668.148 165.495 668.148 170.934H672.148ZM676.424 160.045C679.255 157.106 682.757 155.636 687.074 155.636V151.636C681.719 151.636 677.161 153.514 673.543 157.271L676.424 160.045ZM687.074 155.636C691.531 155.636 695.01 157.116 697.696 160.017L700.631 157.299C697.118 153.504 692.537 151.636 687.074 151.636V155.636ZM697.75 160.072C700.564 162.886 702 166.453 702 170.934H706C706 165.495 704.212 160.878 700.578 157.244L697.75 160.072ZM702 170.934C702 175.137 700.583 178.667 697.723 181.637L700.604 184.411C704.193 180.685 706 176.155 706 170.934H702ZM697.696 181.665C695.01 184.566 691.531 186.046 687.074 186.046V190.046C692.537 190.046 697.118 188.178 700.631 184.383L697.696 181.665Z" fill="#E67821" fill-opacity="0.3"/>
<path d="M356.384 784L354.48 784.612L354.926 786H356.384V784ZM314.162 652.684V650.684H311.418L312.258 653.296L314.162 652.684ZM343.178 652.684L345.091 652.099L344.658 650.684H343.178V652.684ZM374.054 753.682V755.682H376.757L375.967 753.097L374.054 753.682ZM362.708 753.682L360.791 753.11L360.024 755.682H362.708V753.682ZM392.84 652.684V650.684H391.35L390.923 652.112L392.84 652.684ZM415.718 652.684L417.635 652.112L417.208 650.684H415.718V652.684ZM445.85 753.682V755.682H448.534L447.767 753.11L445.85 753.682ZM434.69 753.682L432.776 753.101L431.992 755.682H434.69V753.682ZM465.38 652.684V650.684H463.897L463.466 652.103L465.38 652.684ZM494.21 652.684L496.114 653.296L496.954 650.684H494.21V652.684ZM451.988 784V786H453.446L453.892 784.612L451.988 784ZM429.11 784L427.194 784.575L427.622 786H429.11V784ZM398.792 683.002V681.002H396.103L396.876 683.577L398.792 683.002ZM409.58 683.002L411.496 683.577L412.269 681.002H409.58V683.002ZM379.262 784V786H380.75L381.178 784.575L379.262 784ZM358.288 783.388L316.066 652.072L312.258 653.296L354.48 784.612L358.288 783.388ZM314.162 654.684H343.178V650.684H314.162V654.684ZM341.265 653.269L372.141 754.267L375.967 753.097L345.091 652.099L341.265 653.269ZM374.054 751.682H362.708V755.682H374.054V751.682ZM364.625 754.254L394.757 653.256L390.923 652.112L360.791 753.11L364.625 754.254ZM392.84 654.684H415.718V650.684H392.84V654.684ZM413.801 653.256L443.933 754.254L447.767 753.11L417.635 652.112L413.801 653.256ZM445.85 751.682H434.69V755.682H445.85V751.682ZM436.604 754.263L467.294 653.265L463.466 652.103L432.776 753.101L436.604 754.263ZM465.38 654.684H494.21V650.684H465.38V654.684ZM492.306 652.072L450.084 783.388L453.892 784.612L496.114 653.296L492.306 652.072ZM451.988 782H429.11V786H451.988V782ZM431.026 783.425L400.708 682.427L396.876 683.577L427.194 784.575L431.026 783.425ZM398.792 685.002H409.58V681.002H398.792V685.002ZM407.664 682.427L377.346 783.425L381.178 784.575L411.496 683.577L407.664 682.427ZM379.262 782H356.384V786H379.262V782ZM514.196 780.094L513.245 781.853L513.262 781.862L513.279 781.871L514.196 780.094ZM496.34 763.168L498.053 762.135L496.34 763.168ZM496.154 714.622L494.442 713.589L494.437 713.597L496.154 714.622ZM577.994 713.32L576.252 714.302L576.259 714.314L576.266 714.326L577.994 713.32ZM583.574 741.964L581.592 741.7L581.584 741.76L581.579 741.822L583.574 741.964ZM582.644 748.102L582.649 750.102L584.268 750.098L584.601 748.514L582.644 748.102ZM504.71 748.288H502.71V750.293L504.715 750.288L504.71 748.288ZM504.71 728.758L504.705 726.758L502.71 726.764V728.758H504.71ZM570.554 728.572L571.664 730.236L577.188 726.553L570.549 726.572L570.554 728.572ZM558.278 736.756L556.279 736.804L556.365 740.435L559.388 738.42L558.278 736.756ZM555.86 723.922L554.022 724.71L554.027 724.722L554.033 724.734L555.86 723.922ZM549.164 716.11L548.072 717.785L548.113 717.812L548.157 717.838L549.164 716.11ZM526.844 716.482L527.892 718.185L527.901 718.18L527.91 718.174L526.844 716.482ZM519.218 725.038L517.429 724.144L517.417 724.168L517.406 724.192L519.218 725.038ZM519.404 752.38L517.604 753.251L517.621 753.286L517.64 753.321L519.404 752.38ZM527.588 761.122L526.55 762.832L526.586 762.853L526.622 762.873L527.588 761.122ZM552.326 761.866L553.091 763.714L553.118 763.703L553.144 763.691L552.326 761.866ZM561.812 754.798L563.227 753.384L561.719 751.876L560.311 753.477L561.812 754.798ZM577.436 770.422L578.955 771.724L580.16 770.317L578.85 769.008L577.436 770.422ZM561.254 782.14L560.493 780.291L561.254 782.14ZM540.422 784.046C530.903 784.046 522.482 782.12 515.114 778.317L513.279 781.871C521.286 786.004 530.35 788.046 540.422 788.046V784.046ZM515.148 778.335C507.89 774.408 502.204 769.014 498.053 762.135L494.628 764.201C499.157 771.706 505.375 777.596 513.245 781.853L515.148 778.335ZM498.053 762.135C493.915 755.279 491.83 747.519 491.83 738.802H487.83C487.83 748.189 490.085 756.673 494.628 764.201L498.053 762.135ZM491.83 738.802C491.83 730.074 493.859 722.374 497.872 715.647L494.437 713.597C490.018 721.006 487.83 729.426 487.83 738.802H491.83ZM497.867 715.655C502.028 708.76 507.602 703.364 514.615 699.442L512.662 695.95C505.042 700.212 498.961 706.1 494.442 713.589L497.867 715.655ZM514.615 699.442C521.605 695.532 529.509 693.558 538.376 693.558V689.558C528.892 689.558 520.304 691.676 512.662 695.95L514.615 699.442ZM538.376 693.558C547.009 693.558 554.536 695.414 561.016 699.066L562.98 695.582C555.821 691.546 547.599 689.558 538.376 689.558V693.558ZM561.016 699.066C567.518 702.731 572.587 707.8 576.252 714.302L579.737 712.338C575.713 705.2 570.118 699.605 562.98 695.582L561.016 699.066ZM576.266 714.326C580.036 720.806 581.946 728.263 581.946 736.756H585.946C585.946 727.641 583.889 719.474 579.723 712.314L576.266 714.326ZM581.946 736.756C581.946 738.267 581.83 739.913 581.592 741.7L585.557 742.228C585.815 740.295 585.946 738.469 585.946 736.756H581.946ZM581.579 741.822C581.464 743.44 581.171 745.392 580.687 747.69L584.601 748.514C585.11 746.1 585.437 743.96 585.569 742.106L581.579 741.822ZM582.64 746.102L504.706 746.288L504.715 750.288L582.649 750.102L582.64 746.102ZM506.71 748.288V728.758H502.71V748.288H506.71ZM504.716 730.758L570.56 730.572L570.549 726.572L504.705 726.758L504.716 730.758ZM569.445 726.908L557.169 735.092L559.388 738.42L571.664 730.236L569.445 726.908ZM560.278 736.708C560.15 731.339 559.318 726.778 557.688 723.11L554.033 724.734C555.378 727.762 556.159 731.757 556.279 736.804L560.278 736.708ZM557.699 723.134C556.059 719.308 553.554 716.356 550.172 714.382L548.157 717.838C550.726 719.336 552.686 721.592 554.022 724.71L557.699 723.134ZM550.257 714.435C547.01 712.317 543.074 711.32 538.562 711.32V715.32C542.483 715.32 545.614 716.183 548.072 717.785L550.257 714.435ZM538.562 711.32C533.771 711.32 529.485 712.456 525.779 714.79L527.91 718.174C530.899 716.292 534.426 715.32 538.562 715.32V711.32ZM525.796 714.779C522.224 716.977 519.439 720.124 517.429 724.144L521.007 725.932C522.717 722.512 525.017 719.955 527.892 718.185L525.796 714.779ZM517.406 724.192C515.515 728.244 514.614 733.076 514.614 738.616H518.614C518.614 733.492 519.449 729.272 521.031 725.884L517.406 724.192ZM514.614 738.616C514.614 744.177 515.584 749.077 517.604 753.251L521.205 751.509C519.505 747.995 518.614 743.719 518.614 738.616H514.614ZM517.64 753.321C519.786 757.345 522.76 760.53 526.55 762.832L528.626 759.412C525.473 757.498 522.991 754.855 521.169 751.439L517.64 753.321ZM526.622 762.873C530.563 765.047 535.123 766.098 540.236 766.098V762.098C535.678 762.098 531.806 761.165 528.554 759.371L526.622 762.873ZM540.236 766.098C544.924 766.098 549.219 765.316 553.091 763.714L551.562 760.018C548.241 761.392 544.476 762.098 540.236 762.098V766.098ZM553.144 763.691C557.014 761.956 560.406 759.424 563.314 756.119L560.311 753.477C557.763 756.372 554.83 758.552 551.508 760.041L553.144 763.691ZM560.398 756.212L576.022 771.836L578.85 769.008L563.227 753.384L560.398 756.212ZM575.918 769.12C571.659 774.089 566.524 777.807 560.493 780.291L562.016 783.989C568.633 781.265 574.286 777.171 578.955 771.724L575.918 769.12ZM560.493 780.291C554.435 782.785 547.753 784.046 540.422 784.046V788.046C548.22 788.046 555.426 786.703 562.016 783.989L560.493 780.291ZM614.795 784.186L614.276 786.118L614.288 786.121L614.795 784.186ZM600.473 778.42L599.444 780.135L599.472 780.152L599.501 780.168L600.473 778.42ZM589.313 769.492L587.89 768.086L586.545 769.447L587.845 770.851L589.313 769.492ZM605.495 753.124L606.964 751.767L605.544 750.229L604.072 751.718L605.495 753.124ZM616.097 760.75L615.269 762.571L615.292 762.581L615.316 762.591L616.097 760.75ZM637.115 761.866L636.173 760.101L636.148 760.115L636.122 760.13L637.115 761.866ZM636.557 752.752L635.543 754.476L635.601 754.51L635.662 754.541L636.557 752.752ZM628.373 749.59L627.805 751.508L627.837 751.517L627.871 751.526L628.373 749.59ZM607.169 741.778L608.188 740.057L607.169 741.778ZM598.985 733.594L597.259 734.605L597.267 734.619L597.275 734.632L598.985 733.594ZM600.287 704.95L601.921 706.103L601.928 706.092L601.936 706.081L600.287 704.95ZM612.935 694.72L612.107 692.899L612.935 694.72ZM653.297 695.092L652.517 696.934L652.539 696.943L652.56 696.951L653.297 695.092ZM669.293 706.81L670.715 708.216L671.955 706.962L670.865 705.574L669.293 706.81ZM653.111 723.178L651.588 724.475L653.001 726.134L654.533 724.584L653.111 723.178ZM643.439 716.11L642.707 717.972L642.718 717.976L642.729 717.98L643.439 716.11ZM625.955 715.552L626.903 717.313L626.954 717.286L627.003 717.255L625.955 715.552ZM634.883 726.898L634.381 728.834L634.883 726.898ZM645.485 730.06L646.117 728.163L645.485 730.06ZM656.087 735.082L657.152 733.39L656.087 735.082ZM664.271 743.638L662.545 744.649L662.553 744.663L662.561 744.676L664.271 743.638ZM657.389 778.42L656.161 776.841L656.154 776.847L656.147 776.853L657.389 778.42ZM630.605 784.232C625.445 784.232 620.346 783.572 615.301 782.251L614.288 786.121C619.66 787.528 625.1 788.232 630.605 788.232V784.232ZM615.313 782.254C610.382 780.931 605.761 779.07 601.444 776.672L599.501 780.168C604.113 782.73 609.039 784.713 614.276 786.118L615.313 782.254ZM601.502 776.705C597.306 774.188 593.738 771.328 590.78 768.133L587.845 770.851C591.087 774.352 594.959 777.444 599.444 780.135L601.502 776.705ZM590.735 770.898L606.917 754.53L604.072 751.718L587.89 768.086L590.735 770.898ZM604.025 754.481C607.186 757.905 610.94 760.603 615.269 762.571L616.924 758.929C613.069 757.177 609.755 754.791 606.964 751.767L604.025 754.481ZM615.316 762.591C619.676 764.441 624.408 765.354 629.489 765.354V761.354C624.897 761.354 620.702 760.531 616.878 758.909L615.316 762.591ZM629.489 765.354C632.977 765.354 635.929 764.847 638.107 763.602L636.122 760.13C634.828 760.869 632.696 761.354 629.489 761.354V765.354ZM638.056 763.631C640.401 762.38 641.905 760.42 641.905 757.774H637.905C637.905 758.6 637.549 759.368 636.173 760.101L638.056 763.631ZM641.905 757.774C641.905 756.308 641.532 754.936 640.732 753.735C639.939 752.547 638.804 751.64 637.451 750.963L635.662 754.541C636.541 754.98 637.08 755.468 637.404 755.954C637.719 756.427 637.905 757.008 637.905 757.774H641.905ZM637.571 751.028C635.252 749.664 632.334 748.551 628.875 747.654L627.871 751.526C631.107 752.365 633.646 753.36 635.543 754.476L637.571 751.028ZM628.941 747.672C625.595 746.681 622.063 745.628 618.345 744.512L617.196 748.344C620.918 749.46 624.454 750.515 627.805 751.508L628.941 747.672ZM618.345 744.512C614.781 743.443 611.397 741.959 608.188 740.057L606.149 743.499C609.637 745.565 613.32 747.181 617.196 748.344L618.345 744.512ZM608.188 740.057C605.135 738.248 602.639 735.76 600.694 732.556L597.275 734.632C599.546 738.372 602.506 741.34 606.149 743.499L608.188 740.057ZM600.71 732.583C598.829 729.374 597.823 725.223 597.823 720.016H593.823C593.823 725.721 594.924 730.622 597.259 734.605L600.71 732.583ZM597.823 720.016C597.823 714.545 599.213 709.939 601.921 706.103L598.653 703.797C595.408 708.393 593.823 713.831 593.823 720.016H597.823ZM601.936 706.081C604.679 702.081 608.591 698.891 613.762 696.541L612.107 692.899C606.366 695.509 601.847 699.139 598.637 703.819L601.936 706.081ZM613.762 696.541C618.908 694.202 625.001 693 632.093 693V689C624.553 689 617.874 690.278 612.107 692.899L613.762 696.541ZM632.093 693C639.539 693 646.339 694.32 652.517 696.934L654.076 693.25C647.358 690.408 640.022 689 632.093 689V693ZM652.56 696.951C658.826 699.434 663.861 703.135 667.72 708.046L670.865 705.574C666.54 700.069 660.911 695.958 654.033 693.233L652.56 696.951ZM667.87 705.404L651.688 721.772L654.533 724.584L670.715 708.216L667.87 705.404ZM654.633 721.881C651.594 718.314 648.102 715.74 644.148 714.24L642.729 717.98C645.968 719.208 648.923 721.346 651.588 724.475L654.633 721.881ZM644.17 714.248C640.492 712.803 636.834 712.064 633.209 712.064V716.064C636.279 716.064 639.442 716.689 642.707 717.972L644.17 714.248ZM633.209 712.064C629.845 712.064 626.985 712.57 624.906 713.849L627.003 717.255C628.149 716.55 630.125 716.064 633.209 716.064V712.064ZM625.006 713.791C623.952 714.359 623.061 715.124 622.441 716.127C621.817 717.135 621.537 718.269 621.537 719.458H625.537C625.537 718.911 625.66 718.526 625.842 718.232C626.027 717.933 626.345 717.613 626.903 717.313L625.006 713.791ZM621.537 719.458C621.537 722.276 623.217 724.342 625.763 725.69L627.634 722.154C625.964 721.27 625.537 720.36 625.537 719.458H621.537ZM625.763 725.69C628.055 726.903 630.943 727.943 634.381 728.834L635.385 724.962C632.126 724.117 629.559 723.173 627.634 722.154L625.763 725.69ZM634.381 728.834C637.679 729.689 641.17 730.73 644.852 731.957L646.117 728.163C642.36 726.91 638.782 725.843 635.385 724.962L634.381 728.834ZM644.852 731.957C648.419 733.146 651.807 734.751 655.021 736.774L657.152 733.39C653.67 731.197 649.991 729.454 646.117 728.163L644.852 731.957ZM655.021 736.774C658.083 738.702 660.59 741.315 662.545 744.649L665.996 742.627C663.735 738.769 660.786 735.678 657.152 733.39L655.021 736.774ZM662.561 744.676C664.417 747.733 665.433 751.923 665.433 757.402H669.433C669.433 751.473 668.34 746.487 665.98 742.6L662.561 744.676ZM665.433 757.402C665.433 765.616 662.349 772.029 656.161 776.841L658.617 779.999C665.821 774.395 669.433 766.796 669.433 757.402H665.433ZM656.147 776.853C650.033 781.697 641.593 784.232 630.605 784.232V788.232C642.184 788.232 651.6 785.559 658.631 779.987L656.147 776.853ZM695.706 784H693.706V786H695.706V784ZM695.706 656.218V654.218H693.706V656.218H695.706ZM724.164 656.218H726.164V654.218H724.164V656.218ZM724.164 784V786H726.164V784H724.164ZM675.246 717.784H673.246V719.784H675.246V717.784ZM675.246 693.604V691.604H673.246V693.604H675.246ZM744.624 693.604H746.624V691.604H744.624V693.604ZM744.624 717.784V719.784H746.624V717.784H744.624ZM697.706 784V656.218H693.706V784H697.706ZM695.706 658.218H724.164V654.218H695.706V658.218ZM722.164 656.218V784H726.164V656.218H722.164ZM724.164 782H695.706V786H724.164V782ZM677.246 717.784V693.604H673.246V717.784H677.246ZM675.246 695.604H744.624V691.604H675.246V695.604ZM742.624 693.604V717.784H746.624V693.604H742.624ZM744.624 715.784H675.246V719.784H744.624V715.784Z" fill="#E67821" fill-opacity="0.3"/>
</svg>
