<svg width="193" height="25" viewBox="0 0 193 25" fill="none" xmlns="http://www.w3.org/2000/svg">
<path d="M0.176 24V1.408H5.2V24H0.176ZM14.16 24V1.408H19.216V24H14.16ZM3.184 14.56V10.208H15.824V14.56H3.184ZM30.591 24.352C28.991 24.352 27.5403 24 26.239 23.296C24.959 22.5707 23.9457 21.5893 23.199 20.352C22.4523 19.1147 22.079 17.728 22.079 16.192C22.079 14.656 22.4523 13.28 23.199 12.064C23.9457 10.848 24.959 9.888 26.239 9.184C27.519 8.45867 28.9697 8.096 30.591 8.096C32.2123 8.096 33.663 8.448 34.943 9.152C36.223 9.856 37.2363 10.8267 37.983 12.064C38.7297 13.28 39.103 14.656 39.103 16.192C39.103 17.728 38.7297 19.1147 37.983 20.352C37.2363 21.5893 36.223 22.5707 34.943 23.296C33.663 24 32.2123 24.352 30.591 24.352ZM30.591 19.904C31.295 19.904 31.9137 19.7547 32.447 19.456C32.9803 19.136 33.3857 18.6987 33.663 18.144C33.9617 17.568 34.111 16.9173 34.111 16.192C34.111 15.4667 33.9617 14.8373 33.663 14.304C33.3643 13.7493 32.9483 13.3227 32.415 13.024C31.903 12.704 31.295 12.544 30.591 12.544C29.9083 12.544 29.3003 12.704 28.767 13.024C28.2337 13.3227 27.8177 13.7493 27.519 14.304C27.2203 14.8587 27.071 15.4987 27.071 16.224C27.071 16.928 27.2203 17.568 27.519 18.144C27.8177 18.6987 28.2337 19.136 28.767 19.456C29.3003 19.7547 29.9083 19.904 30.591 19.904ZM41.5405 24V8.448H46.4365V24H41.5405ZM46.4365 15.456L44.3885 13.856C44.7938 12.0427 45.4765 10.6347 46.4365 9.632C47.3965 8.62933 48.7298 8.128 50.4365 8.128C51.1832 8.128 51.8338 8.24533 52.3885 8.48C52.9645 8.69333 53.4658 9.03467 53.8925 9.504L50.9805 13.184C50.7672 12.9493 50.5005 12.768 50.1805 12.64C49.8605 12.512 49.4978 12.448 49.0925 12.448C48.2818 12.448 47.6312 12.704 47.1405 13.216C46.6712 13.7067 46.4365 14.4533 46.4365 15.456ZM55.1968 24V8.448H60.0928V24H55.1968ZM57.6608 6.304C56.8928 6.304 56.2528 6.048 55.7408 5.536C55.2501 5.00267 55.0048 4.36267 55.0048 3.616C55.0048 2.848 55.2501 2.208 55.7408 1.696C56.2528 1.184 56.8928 0.927999 57.6608 0.927999C58.4288 0.927999 59.0581 1.184 59.5488 1.696C60.0394 2.208 60.2848 2.848 60.2848 3.616C60.2848 4.36267 60.0394 5.00267 59.5488 5.536C59.0581 6.048 58.4288 6.304 57.6608 6.304ZM62.5485 21.12L70.3565 11.296H76.3085L68.5005 21.12H62.5485ZM62.5485 24V21.12L66.0365 19.904H76.1165V24H62.5485ZM63.1245 12.544V8.448H76.3085V11.296L72.8525 12.544H63.1245ZM85.9973 24.352C84.3973 24.352 82.9466 24 81.6453 23.296C80.3653 22.5707 79.3519 21.5893 78.6053 20.352C77.8586 19.1147 77.4853 17.728 77.4853 16.192C77.4853 14.656 77.8586 13.28 78.6053 12.064C79.3519 10.848 80.3653 9.888 81.6453 9.184C82.9253 8.45867 84.3759 8.096 85.9973 8.096C87.6186 8.096 89.0693 8.448 90.3493 9.152C91.6293 9.856 92.6426 10.8267 93.3893 12.064C94.1359 13.28 94.5093 14.656 94.5093 16.192C94.5093 17.728 94.1359 19.1147 93.3893 20.352C92.6426 21.5893 91.6293 22.5707 90.3493 23.296C89.0693 24 87.6186 24.352 85.9973 24.352ZM85.9973 19.904C86.7013 19.904 87.3199 19.7547 87.8533 19.456C88.3866 19.136 88.7919 18.6987 89.0693 18.144C89.3679 17.568 89.5173 16.9173 89.5173 16.192C89.5173 15.4667 89.3679 14.8373 89.0693 14.304C88.7706 13.7493 88.3546 13.3227 87.8213 13.024C87.3093 12.704 86.7013 12.544 85.9973 12.544C85.3146 12.544 84.7066 12.704 84.1733 13.024C83.6399 13.3227 83.2239 13.7493 82.9253 14.304C82.6266 14.8587 82.4773 15.4987 82.4773 16.224C82.4773 16.928 82.6266 17.568 82.9253 18.144C83.2239 18.6987 83.6399 19.136 84.1733 19.456C84.7066 19.7547 85.3146 19.904 85.9973 19.904ZM107.219 24V15.136C107.219 14.3253 106.963 13.6747 106.451 13.184C105.96 12.672 105.331 12.416 104.563 12.416C104.029 12.416 103.56 12.5333 103.155 12.768C102.749 12.9813 102.429 13.3013 102.195 13.728C101.96 14.1333 101.843 14.6027 101.843 15.136L99.9548 14.208C99.9548 12.992 100.221 11.9253 100.755 11.008C101.288 10.0907 102.024 9.38667 102.963 8.896C103.923 8.384 105 8.128 106.195 8.128C107.347 8.128 108.36 8.40533 109.235 8.96C110.131 9.49333 110.835 10.208 111.347 11.104C111.859 12 112.115 12.9813 112.115 14.048V24H107.219ZM96.9468 24V8.448H101.843V24H96.9468Z" fill="#E67821"/>
<path d="M120.155 24L113.563 8.448H118.843L123.323 21.408H121.019L125.499 8.448H130.683L124.091 23.968L120.155 24ZM139.689 24.352C138.004 24.352 136.5 24.0107 135.177 23.328C133.876 22.624 132.852 21.6533 132.105 20.416C131.359 19.1787 130.985 17.7813 130.985 16.224C130.985 14.6667 131.348 13.28 132.073 12.064C132.82 10.8267 133.823 9.856 135.081 9.152C136.34 8.448 137.759 8.096 139.337 8.096C140.873 8.096 142.228 8.42667 143.401 9.088C144.575 9.74933 145.492 10.6667 146.153 11.84C146.836 13.0133 147.177 14.3573 147.177 15.872C147.177 16.1493 147.156 16.448 147.113 16.768C147.092 17.0667 147.039 17.4187 146.953 17.824L133.545 17.856V14.496L144.873 14.464L142.761 15.872C142.74 14.976 142.601 14.24 142.345 13.664C142.089 13.0667 141.705 12.6187 141.193 12.32C140.703 12 140.095 11.84 139.369 11.84C138.601 11.84 137.929 12.0213 137.353 12.384C136.799 12.7253 136.361 13.216 136.041 13.856C135.743 14.496 135.593 15.2747 135.593 16.192C135.593 17.1093 135.753 17.8987 136.073 18.56C136.415 19.2 136.884 19.7013 137.481 20.064C138.1 20.4053 138.825 20.576 139.657 20.576C140.425 20.576 141.119 20.448 141.737 20.192C142.356 19.9147 142.9 19.5093 143.369 18.976L146.057 21.664C145.289 22.56 144.361 23.232 143.273 23.68C142.185 24.128 140.991 24.352 139.689 24.352ZM149.541 24V8.448H154.437V24H149.541ZM154.437 15.456L152.389 13.856C152.794 12.0427 153.477 10.6347 154.437 9.632C155.397 8.62933 156.73 8.128 158.437 8.128C159.183 8.128 159.834 8.24533 160.389 8.48C160.965 8.69333 161.466 9.03467 161.893 9.504L158.981 13.184C158.767 12.9493 158.501 12.768 158.181 12.64C157.861 12.512 157.498 12.448 157.093 12.448C156.282 12.448 155.631 12.704 155.141 13.216C154.671 13.7067 154.437 14.4533 154.437 15.456ZM168.517 24.384C167.6 24.384 166.693 24.2667 165.797 24.032C164.922 23.7973 164.101 23.4667 163.333 23.04C162.586 22.592 161.946 22.08 161.413 21.504L164.197 18.688C164.709 19.2427 165.317 19.68 166.021 20C166.725 20.2987 167.493 20.448 168.325 20.448C168.901 20.448 169.338 20.3627 169.637 20.192C169.957 20.0213 170.117 19.7867 170.117 19.488C170.117 19.104 169.925 18.816 169.541 18.624C169.178 18.4107 168.709 18.2293 168.133 18.08C167.557 17.9093 166.949 17.728 166.309 17.536C165.669 17.344 165.061 17.0773 164.485 16.736C163.909 16.3947 163.44 15.9253 163.077 15.328C162.714 14.7093 162.533 13.9307 162.533 12.992C162.533 11.9893 162.789 11.1253 163.301 10.4C163.813 9.65333 164.538 9.06667 165.477 8.64C166.416 8.21333 167.514 8 168.773 8C170.096 8 171.312 8.23467 172.421 8.704C173.552 9.152 174.469 9.824 175.173 10.72L172.389 13.536C171.898 12.96 171.344 12.5547 170.725 12.32C170.128 12.0853 169.541 11.968 168.965 11.968C168.41 11.968 167.994 12.0533 167.717 12.224C167.44 12.3733 167.301 12.5973 167.301 12.896C167.301 13.216 167.482 13.472 167.845 13.664C168.208 13.856 168.677 14.0267 169.253 14.176C169.829 14.3253 170.437 14.5067 171.077 14.72C171.717 14.9333 172.325 15.2213 172.901 15.584C173.477 15.9467 173.946 16.4373 174.309 17.056C174.672 17.6533 174.853 18.4427 174.853 19.424C174.853 20.9387 174.277 22.144 173.125 23.04C171.994 23.936 170.458 24.384 168.517 24.384ZM185.189 24.352C183.504 24.352 182 24.0107 180.677 23.328C179.376 22.624 178.352 21.6533 177.605 20.416C176.859 19.1787 176.485 17.7813 176.485 16.224C176.485 14.6667 176.848 13.28 177.573 12.064C178.32 10.8267 179.323 9.856 180.581 9.152C181.84 8.448 183.259 8.096 184.837 8.096C186.373 8.096 187.728 8.42667 188.901 9.088C190.075 9.74933 190.992 10.6667 191.653 11.84C192.336 13.0133 192.677 14.3573 192.677 15.872C192.677 16.1493 192.656 16.448 192.613 16.768C192.592 17.0667 192.539 17.4187 192.453 17.824L179.045 17.856V14.496L190.373 14.464L188.261 15.872C188.24 14.976 188.101 14.24 187.845 13.664C187.589 13.0667 187.205 12.6187 186.693 12.32C186.203 12 185.595 11.84 184.869 11.84C184.101 11.84 183.429 12.0213 182.853 12.384C182.299 12.7253 181.861 13.216 181.541 13.856C181.243 14.496 181.093 15.2747 181.093 16.192C181.093 17.1093 181.253 17.8987 181.573 18.56C181.915 19.2 182.384 19.7013 182.981 20.064C183.6 20.4053 184.325 20.576 185.157 20.576C185.925 20.576 186.619 20.448 187.237 20.192C187.856 19.9147 188.4 19.5093 188.869 18.976L191.557 21.664C190.789 22.56 189.861 23.232 188.773 23.68C187.685 24.128 186.491 24.352 185.189 24.352Z" fill="#FFF7EC"/>
</svg>
